<?xml version="1.0" encoding="utf-8"?>
<!-- Generator: Adobe Illustrator 22.0.1, SVG Export Plug-In . SVG Version: 6.00 Build 0)  -->
<svg version="1.1" xmlns="http://www.w3.org/2000/svg" xmlns:xlink="http://www.w3.org/1999/xlink" x="0px" y="0px"
	 viewBox="0 0 150 187.5" style="enable-background:new 0 0 150 187.5;" xml:space="preserve">
<style type="text/css">
	.st0{fill:#FFFFFF;stroke:#000000;stroke-width:3;stroke-linecap:square;stroke-miterlimit:10;}
</style>
<g id="Layer_2">
</g>
<g id="Layer_1">
	<polygon class="st0" points="-93.7,17.3 -93.7,17.3 -93.7,17.3 -93.7,17.3 	"/>
	<g>
		<g>
			<rect x="89.6" y="113.3" width="5" height="6.4"/>
		</g>
		<g>
			<rect x="67.3" y="112.9" width="5" height="6.8"/>
		</g>
		<path d="M126.1,49.4H96.8v18c0,5.4-4.4,9.8-9.8,9.8H73.8v0.6c0,2.7,2.2,4.9,4.9,4.9h20.8v7c0,3.8,3.1,7,6.9,7h1.9
			c1.1,0,1.9,0.9,1.9,2s-0.9,2-1.9,2H96.5c-3.8,0-6.9,3.1-6.9,7v3.5h5v-3.5c0-1.1,0.9-2,1.9-2h11.8c3.8,0,6.9-3.1,6.9-7
			s-3.1-7-6.9-7h-1.9c-1.1,0-1.9-0.9-1.9-2v-7h21.6c2.7,0,4.9-2.2,4.9-4.9V54.3C131,51.6,128.8,49.4,126.1,49.4z"/>
		<path d="M64.1,97.6H48.8c-1.8,0-3.2-1.5-3.2-3.3S47,91,48.8,91h2.4c4.5,0,8.2-3.7,8.2-8.3v-8.6h27.7c3.7,0,6.8-3,6.8-6.8V37.1
			c0-3.7-3-6.8-6.8-6.8H25.8c-3.7,0-6.8,3-6.8,6.8v30.3c0,3.7,3,6.8,6.8,6.8h28.6v8.6c0,1.8-1.4,3.3-3.2,3.3h-2.4
			c-4.5,0-8.2,3.7-8.2,8.3s3.7,8.3,8.2,8.3h15.3c1.8,0,3.2,1.5,3.2,3.3v3.7h5V106C72.3,101.3,68.6,97.6,64.1,97.6z M74.4,46.4
			c3.2,0,5.8,2.6,5.8,5.8S77.6,58,74.4,58c-3.2,0-5.8-2.6-5.8-5.8S71.2,46.4,74.4,46.4z M38.4,58.1c-3.2,0-5.8-2.6-5.8-5.8
			s2.6-5.8,5.8-5.8s5.8,2.6,5.8,5.8C44.2,55.4,41.6,58.1,38.4,58.1z M50.6,52.2c0-3.2,2.6-5.8,5.8-5.8s5.8,2.6,5.8,5.8
			S59.6,58,56.4,58C53.2,58.1,50.6,55.4,50.6,52.2z"/>
	</g>
</g>
</svg>
