<svg xmlns="http://www.w3.org/2000/svg" viewBox="0 0 703.17 573.02"><defs><style>.cls-1{fill:#333;}.cls-2{fill:#456fb2;}</style></defs><title>Asset 2</title><g id="Layer_2" data-name="Layer 2"><g id="Layer_1-2" data-name="Layer 1"><path class="cls-1" d="M168.18,123.69C184.62,85.78,173,41.33,139.74,16.82A88,88,0,0,0,11.37,44.72c-20.08,35.16-13,80.6,16.83,108,34.18,31.34,84.62,30.76,118.54.55L297,262.3l-41,56.55,29.53,21.45,41.06-56.56L342.09,295l-41,56.48,30,21.37,51.3-70.68a18.93,18.93,0,0,0-4.22-26.45Zm-37.41-4.6C113.47,142.93,81.28,148,57,130.81S28.05,81.32,45.28,57A53,53,0,0,1,79.46,35.56a53,53,0,0,1,39.15,9.83C142.89,62.62,148,94.81,130.77,119.09Z"/><path class="cls-2" d="M674.33,323.61v-98c0-70.64-57.67-128.31-129.75-128.31S414.82,154.93,414.82,225.57v98C396.08,349.56,386,381.28,386,414.44a158.59,158.59,0,0,0,317.18,0C703.17,379.83,693.08,349.56,674.33,323.61ZM559,424.53v33.16H530.16V424.53c-8.65-4.33-14.42-14.42-14.42-24.51a28.84,28.84,0,1,1,57.67,0C573.41,410.11,567.65,420.2,559,424.53Zm57.66-151.38c-21.62-11.54-46.13-17.3-72.08-17.3s-50.46,7.21-73.53,17.3V225.57c0-40.37,33.16-72.09,72.09-72.09,40.36,0,72.08,31.72,72.08,72.09v47.58Z"/></g></g></svg>