<?xml version="1.0" encoding="utf-8"?>
<!-- Generator: Adobe Illustrator 22.0.1, SVG Export Plug-In . SVG Version: 6.00 Build 0)  -->
<svg version="1.1" id="Layer_1" xmlns="http://www.w3.org/2000/svg" xmlns:xlink="http://www.w3.org/1999/xlink" x="0px" y="0px"
	 viewBox="0 0 100 125" style="enable-background:new 0 0 100 125;" xml:space="preserve">
<g>
	<path d="M91.4,36.7H8.6v45h82.8V36.7z M36.8,70.7c0.8,0.8,0.8,2,0,2.8c-0.4,0.4-0.9,0.6-1.4,0.6s-1-0.2-1.4-0.6L21.2,60.8
		c-0.4-0.4-0.6-0.9-0.6-1.4s0.2-1,0.6-1.4L34,45.1c0.8-0.8,2-0.8,2.8,0s0.8,2,0,2.8L25.4,59.3L36.8,70.7z M58.6,47.5L44.9,73.1
		c-0.4,0.7-1.1,1.1-1.8,1.1c-0.3,0-0.6-0.1-0.9-0.2c-1-0.5-1.3-1.7-0.8-2.7l13.8-25.6c0.5-1,1.7-1.3,2.7-0.8
		C58.8,45.3,59.2,46.5,58.6,47.5z M78.8,60.8L66,73.6c-0.4,0.4-0.9,0.6-1.4,0.6s-1-0.2-1.4-0.6c-0.8-0.8-0.8-2,0-2.8l11.4-11.4
		L63.2,48c-0.8-0.8-0.8-2,0-2.8s2-0.8,2.8,0L78.8,58c0.4,0.4,0.6,0.9,0.6,1.4S79.2,60.4,78.8,60.8z"/>
	<path d="M91.4,18.2H8.6v14.5h82.8V18.2z M15.7,30.7c-2.8,0-5.1-2.3-5.1-5.1s2.3-5.1,5.1-5.1s5.1,2.3,5.1,5.1S18.5,30.7,15.7,30.7z
		 M29.6,30.7c-2.8,0-5.1-2.3-5.1-5.1s2.3-5.1,5.1-5.1s5.1,2.3,5.1,5.1S32.4,30.7,29.6,30.7z M43.5,30.7c-2.8,0-5.1-2.3-5.1-5.1
		s2.3-5.1,5.1-5.1s5.1,2.3,5.1,5.1S46.3,30.7,43.5,30.7z"/>
</g>
</svg>
